<svg width="32px" height="32px" viewBox="-2 0 32 32" xmlns="http://www.w3.org/2000/svg">
  <g id="Lager_22" data-name="Lager 22" transform="translate(-2)">
    <g id="Group_5" data-name="Group 5">
      <path id="Path_24" data-name="Path 24" d="M23.967,12H8.033a2,2,0,0,0-2.005,2.3L8.746,30.333A1.7,1.7,0,0,0,10.473,32H21.527a1.7,1.7,0,0,0,1.727-1.667L25.972,14.3A2,2,0,0,0,23.967,12ZM19.593,28H12.407L10.372,16H21.628Z" fill="#040505"/>
      <path id="Path_25" data-name="Path 25" d="M28.02,4H22a1.963,1.963,0,0,1-2-2,2,2,0,0,0-2-2H14a2,2,0,0,0-2,2,1.963,1.963,0,0,1-2,2H3.98A1.979,1.979,0,0,0,2,5.98v.04A1.979,1.979,0,0,0,3.98,8H28.02A1.979,1.979,0,0,0,30,6.02V5.98A1.979,1.979,0,0,0,28.02,4Z" fill="#040505"/>
    </g>
  </g>
</svg>
